<svg width="100" height="100" viewBox="0 0 100 100" fill="none" xmlns="http://www.w3.org/2000/svg">
<g clip-path="url(#clip0_48_5)">
<rect width="100" height="100" fill="#F8FCFA"/>
<path d="M-14.5 -5.5C-8.16667 5 4 20.5 15 25C27.0677 29.9368 39 35 50.5 33.5C57.1519 32.6324 88.5 13 91 48.5C93.5 84 60.5 71.5 50.5 73.5C40.5 75.5 34.5 79 25 95C17.4 107.8 38.1667 125.667 35.5 128.5" stroke="#9DCDB5" stroke-width="4" stroke-linecap="round" stroke-linejoin="round" stroke-dasharray="8 8"/>
<circle cx="50" cy="73" r="11" fill="#5DBB93"/>
<circle cx="24" cy="27" r="11" fill="#5DBB93"/>
<circle cx="87" cy="36" r="11" fill="#5DBB93"/>
<path d="M12.2197 48.918H13.6348V50.709H12.2061L12.1924 53.7031C12.1924 53.8763 12.2061 54.0176 12.2334 54.127C12.2607 54.2318 12.2995 54.3161 12.3496 54.3799C12.4043 54.4437 12.4681 54.487 12.541 54.5098C12.6139 54.5326 12.6982 54.5439 12.7939 54.5439C12.9671 54.5439 13.1198 54.528 13.252 54.4961C13.3841 54.4596 13.5163 54.4186 13.6484 54.373L13.9424 55.6924C13.71 55.8382 13.4502 55.9544 13.1631 56.041C12.8805 56.1276 12.5433 56.1709 12.1514 56.1709C11.8734 56.1709 11.6068 56.123 11.3516 56.0273C11.1009 55.9316 10.8799 55.7881 10.6885 55.5967C10.4971 55.4007 10.3444 55.1569 10.2305 54.8652C10.1165 54.5736 10.0618 54.234 10.0664 53.8467L10.0869 50.709H9.06836V48.918H10.0938L10.1074 47.2227L12.2334 46.2109L12.2197 48.918ZM21.4414 51.4951H19.5205V50.7637C19.3337 50.7637 19.1628 50.7773 19.0078 50.8047C18.8529 50.8275 18.7161 50.8685 18.5977 50.9277C18.4837 50.987 18.3857 51.069 18.3037 51.1738C18.2262 51.2786 18.1715 51.4085 18.1396 51.5635V54.127H19.582V56H14.9609V54.127H16.0205V50.791H14.9746V48.918H18.126V49.417C18.3265 49.2575 18.5521 49.1344 18.8027 49.0479C19.0534 48.9613 19.3268 48.918 19.623 48.918C19.9238 48.918 20.2337 48.9202 20.5527 48.9248C20.8717 48.9294 21.168 48.9316 21.4414 48.9316V51.4951ZM22.6035 48.918H25.7822V54.127H26.7666V56H22.6035V54.127H23.6699V50.791H22.6035V48.918ZM23.5605 46.6348C23.5605 46.4661 23.5902 46.3089 23.6494 46.1631C23.7132 46.0127 23.7998 45.8828 23.9092 45.7734C24.0186 45.6641 24.1462 45.5775 24.292 45.5137C24.4424 45.4499 24.6042 45.418 24.7773 45.418C24.9414 45.418 25.0964 45.4499 25.2422 45.5137C25.388 45.5775 25.5156 45.6641 25.625 45.7734C25.7344 45.8828 25.821 46.0127 25.8848 46.1631C25.9486 46.3089 25.9805 46.4661 25.9805 46.6348C25.9805 46.8034 25.9486 46.9629 25.8848 47.1133C25.821 47.2591 25.7344 47.3867 25.625 47.4961C25.5156 47.6055 25.388 47.6921 25.2422 47.7559C25.0964 47.8197 24.9414 47.8516 24.7773 47.8516C24.6042 47.8516 24.4424 47.8197 24.292 47.7559C24.1462 47.6921 24.0186 47.6055 23.9092 47.4961C23.7998 47.3867 23.7132 47.2591 23.6494 47.1133C23.5902 46.9629 23.5605 46.8034 23.5605 46.6348ZM28.2705 48.918H31.3604V49.0205C31.5791 48.9248 31.8024 48.8496 32.0303 48.7949C32.2581 48.7357 32.4928 48.7061 32.7344 48.7061C33.2539 48.7061 33.737 48.804 34.1836 49C34.6302 49.196 35.0176 49.4626 35.3457 49.7998C35.6738 50.137 35.929 50.5312 36.1113 50.9824C36.2982 51.4336 36.3916 51.9121 36.3916 52.418C36.3916 52.9284 36.3005 53.4092 36.1182 53.8604C35.9404 54.3115 35.6898 54.7057 35.3662 55.043C35.0426 55.3757 34.6553 55.64 34.2041 55.8359C33.7575 56.0273 33.2676 56.123 32.7344 56.123C32.4336 56.123 32.1533 56.0934 31.8936 56.0342C31.6338 55.9795 31.3831 55.8997 31.1416 55.7949V57.3467H32.4951V59.2197H27.874V57.3467H29.0361V50.791H28.2705V48.918ZM32.584 50.5928C32.2969 50.5928 32.028 50.668 31.7773 50.8184C31.5267 50.9688 31.3148 51.1807 31.1416 51.4541V53.4502C31.2874 53.6826 31.4857 53.8717 31.7363 54.0176C31.987 54.1634 32.2695 54.2363 32.584 54.2363C32.8164 54.2363 33.0374 54.193 33.2471 54.1064C33.4567 54.0153 33.639 53.89 33.7939 53.7305C33.9489 53.5664 34.0719 53.375 34.1631 53.1562C34.2542 52.9329 34.2998 52.6914 34.2998 52.4316C34.2998 52.1445 34.2542 51.887 34.1631 51.6592C34.0765 51.4313 33.9557 51.2399 33.8008 51.085C33.6458 50.9255 33.4635 50.8047 33.2539 50.7227C33.0443 50.6361 32.821 50.5928 32.584 50.5928ZM37.6221 48.918H40.7119V49.0205C40.9307 48.9248 41.154 48.8496 41.3818 48.7949C41.6097 48.7357 41.8444 48.7061 42.0859 48.7061C42.6055 48.7061 43.0885 48.804 43.5352 49C43.9818 49.196 44.3691 49.4626 44.6973 49.7998C45.0254 50.137 45.2806 50.5312 45.4629 50.9824C45.6497 51.4336 45.7432 51.9121 45.7432 52.418C45.7432 52.9284 45.652 53.4092 45.4697 53.8604C45.292 54.3115 45.0413 54.7057 44.7178 55.043C44.3942 55.3757 44.0068 55.64 43.5557 55.8359C43.109 56.0273 42.6191 56.123 42.0859 56.123C41.7852 56.123 41.5049 56.0934 41.2451 56.0342C40.9854 55.9795 40.7347 55.8997 40.4932 55.7949V57.3467H41.8467V59.2197H37.2256V57.3467H38.3877V50.791H37.6221V48.918ZM41.9355 50.5928C41.6484 50.5928 41.3796 50.668 41.1289 50.8184C40.8783 50.9688 40.6663 51.1807 40.4932 51.4541V53.4502C40.639 53.6826 40.8372 53.8717 41.0879 54.0176C41.3385 54.1634 41.6211 54.2363 41.9355 54.2363C42.168 54.2363 42.389 54.193 42.5986 54.1064C42.8083 54.0153 42.9906 53.89 43.1455 53.7305C43.3005 53.5664 43.4235 53.375 43.5146 53.1562C43.6058 52.9329 43.6514 52.6914 43.6514 52.4316C43.6514 52.1445 43.6058 51.887 43.5146 51.6592C43.4281 51.4313 43.3073 51.2399 43.1523 51.085C42.9974 50.9255 42.8151 50.8047 42.6055 50.7227C42.3958 50.6361 42.1725 50.5928 41.9355 50.5928ZM46.707 48.918H49.8857V54.127H50.8701V56H46.707V54.127H47.7734V50.791H46.707V48.918ZM47.6641 46.6348C47.6641 46.4661 47.6937 46.3089 47.7529 46.1631C47.8167 46.0127 47.9033 45.8828 48.0127 45.7734C48.1221 45.6641 48.2497 45.5775 48.3955 45.5137C48.5459 45.4499 48.7077 45.418 48.8809 45.418C49.0449 45.418 49.1999 45.4499 49.3457 45.5137C49.4915 45.5775 49.6191 45.6641 49.7285 45.7734C49.8379 45.8828 49.9245 46.0127 49.9883 46.1631C50.0521 46.3089 50.084 46.4661 50.084 46.6348C50.084 46.8034 50.0521 46.9629 49.9883 47.1133C49.9245 47.2591 49.8379 47.3867 49.7285 47.4961C49.6191 47.6055 49.4915 47.6921 49.3457 47.7559C49.1999 47.8197 49.0449 47.8516 48.8809 47.8516C48.7077 47.8516 48.5459 47.8197 48.3955 47.7559C48.2497 47.6921 48.1221 47.6055 48.0127 47.4961C47.9033 47.3867 47.8167 47.2591 47.7529 47.1133C47.6937 46.9629 47.6641 46.8034 47.6641 46.6348ZM55.1836 48.918H56.4756V50.709H55.1836V54.127H56.4893V56H52.0938V54.127H53.1533V50.709H52.0801V48.918H53.1533V47.7422C53.1533 47.3275 53.2262 46.9629 53.3721 46.6484C53.5179 46.334 53.7116 46.0697 53.9531 45.8555C54.1992 45.6413 54.4818 45.4795 54.8008 45.3701C55.1198 45.2607 55.4548 45.2061 55.8057 45.2061C56.0654 45.2061 56.2979 45.2266 56.5029 45.2676C56.708 45.304 56.888 45.3519 57.043 45.4111C57.1979 45.4704 57.3278 45.5342 57.4326 45.6025C57.542 45.6709 57.6286 45.7347 57.6924 45.7939L56.9062 47.2363C56.8014 47.1589 56.6829 47.0973 56.5508 47.0518C56.4186 47.0062 56.2568 46.9834 56.0654 46.9834C55.9424 46.9834 55.8262 47.0039 55.7168 47.0449C55.612 47.0859 55.5186 47.1452 55.4365 47.2227C55.359 47.3001 55.2975 47.3981 55.252 47.5166C55.2064 47.6305 55.1836 47.765 55.1836 47.9199V48.918ZM57.4873 48.918H60.96V50.791H60.4131L61.4316 53.4434L62.4775 50.791H61.8691V48.918H65.3418V50.791H64.5693L61.8281 57.3467H63.0449V59.2197H58.6494V57.3467H59.8867L60.4199 56L58.2051 50.791H57.4873V48.918Z" fill="#0C1D16"/>
</g>
<defs>
<clipPath id="clip0_48_5">
<rect width="100" height="100" rx="20" fill="white"/>
</clipPath>
</defs>
</svg>
